<?xml version="1.0" encoding="UTF-8" standalone="no"?>
<svg width="422px" height="140px" viewBox="0 0 422 140" version="1.1" xmlns="http://www.w3.org/2000/svg" xmlns:xlink="http://www.w3.org/1999/xlink">
    <!-- Generator: Sketch 48.2 (47327) - http://www.bohemiancoding.com/sketch -->
    <title>cryptopanic-logo-on-white</title>
    <desc>Created with Sketch.</desc>
    <defs>
        <circle id="path-1" cx="70" cy="70" r="70"></circle>
    </defs>
    <g id="cryptopanic-hawling-wolf-logo-copy-4" stroke="none" stroke-width="1" fill="none" fill-rule="evenodd" transform="translate(-701.000000, -330.000000)">
        <g id="cryptopanic-logo-on-white" transform="translate(701.000000, 330.000000)">
            <g id="Group-16-Copy" transform="translate(168.000000, 10.000000)">
                <g id="Group-5">
                    <path d="M4.26325641e-14,23.4930247 C4.26325641e-14,36.7976784 9.46162091,46.7761686 23.4974029,46.7761686 C35.2147745,46.7761686 41.5434084,39.2452326 41.5434084,39.2452326 L35.9040317,31.2122341 C35.9040317,31.2122341 30.7659329,36.7349206 23.9986808,36.7349206 C15.727595,36.7349206 11.3414131,29.8943203 11.3414131,23.2419935 C11.3414131,16.7779401 15.4142963,10.4394023 23.9986808,10.4394023 C30.2019952,10.4394023 35.2147745,15.0207217 35.2147745,15.0207217 L40.2902135,6.73669208 C40.2902135,6.73669208 34.5881771,0.398154258 23.4974029,0.398154258 C10.0255586,0.398154258 4.26325641e-14,10.4394023 4.26325641e-14,23.4930247 L4.26325641e-14,23.4930247 Z M48.1853409,46.023075 L59.1507956,46.023075 L59.1507956,30.8984451 L64.2888944,30.8984451 L72.2466815,46.023075 L84.465331,46.023075 L75.755627,30.3336249 C74.6904114,28.4508909 74.063814,27.6350395 74.063814,27.6350395 L74.063814,27.5095239 C78.5126556,25.2502431 80.7684063,20.0413457 80.7684063,15.2717529 C80.7684063,8.74494168 77.5727595,4.16362227 72.4973205,2.21813046 C70.5548685,1.46503686 68.3617776,1.15124786 63.7876165,1.15124786 L48.1853409,1.15124786 L48.1853409,46.023075 Z M59.1507956,21.4847751 L59.1507956,10.5649179 L62.8477203,10.5649179 C68.3617776,10.5649179 69.6149724,12.5731675 69.6149724,15.9620887 C69.6149724,19.5392833 67.4218814,21.4847751 63.9129359,21.4847751 L59.1507956,21.4847751 Z M100.380905,46.023075 L111.34636,46.023075 L111.34636,27.6350395 L126.134059,1.15124786 L113.66477,1.15124786 L108.651991,11.9455895 C107.210817,15.0207217 105.957622,18.4096429 105.957622,18.4096429 L105.832303,18.4096429 C105.832303,18.4096429 104.579108,15.0207217 103.137934,11.9455895 L98.0624948,1.15124786 L85.5932064,1.15124786 L100.380905,27.6350395 L100.380905,46.023075 Z M131.146838,46.023075 L142.112293,46.023075 L142.112293,32.1536011 L149.756781,32.1536011 C158.466485,32.1536011 164.356501,25.6267899 164.356501,16.5896667 C164.356501,7.55254348 158.466485,1.15124786 149.756781,1.15124786 L131.146838,1.15124786 L131.146838,46.023075 Z M142.112293,22.7399311 L142.112293,10.5649179 L147.68901,10.5649179 C151.323275,10.5649179 153.203067,13.0124721 153.203067,16.5896667 C153.203067,20.1668613 151.323275,22.7399311 147.501031,22.7399311 L142.112293,22.7399311 Z M179.457499,46.023075 L190.422953,46.023075 L190.422953,10.5649179 L204.020117,10.5649179 L204.020117,1.15124786 L165.860335,1.15124786 L165.860335,10.5649179 L179.457499,10.5649179 L179.457499,46.023075 Z M206.463847,23.3047513 C206.463847,36.4838894 216.364086,46.7761686 229.89859,46.7761686 C243.433094,46.7761686 253.333333,36.4838894 253.333333,23.3047513 C253.333333,10.4394023 243.433094,0.398154258 229.89859,0.398154258 C216.364086,0.398154258 206.463847,10.4394023 206.463847,23.3047513 L206.463847,23.3047513 Z M217.80526,23.3047513 C217.80526,15.9620887 223.193998,10.4394023 229.89859,10.4394023 C236.603182,10.4394023 241.99192,15.9620887 241.99192,23.3047513 C241.99192,30.9612029 236.603182,36.7349206 229.89859,36.7349206 C223.193998,36.7349206 217.80526,30.9612029 217.80526,23.3047513 L217.80526,23.3047513 Z" id="CRYPTO" fill="#FF9933"></path>
                    <path d="M36.9748409,70.1304208 C40.7376161,73.3350668 42.6189754,78.2573293 42.6189754,84.8973559 C42.6189754,91.5373825 40.6864226,96.395553 36.821259,99.4720132 C32.9560953,102.548473 27.0560499,104.08668 19.1209457,104.08668 L11.9793877,104.08668 L11.9793877,119.084349 L0,119.084349 L0,65.3234758 L18.9673638,65.3234758 C27.2096333,65.3234758 33.2120657,66.9257747 36.9748409,70.1304208 L36.9748409,70.1304208 Z M28.1822775,91.2809789 C29.6157156,89.6658373 30.332424,87.3072532 30.332424,84.2051558 C30.332424,81.1030584 29.3981435,78.898295 27.5295544,77.5907995 C25.6609654,76.2833039 22.7557369,75.6295659 18.813782,75.6295659 L11.9793877,75.6295659 L11.9793877,93.7036792 L20.0424371,93.7036792 C24.0355863,93.7036792 26.7488393,92.8961205 28.1822775,91.2809789 L28.1822775,91.2809789 Z M90.1525715,119.084349 L85.1611599,107.47077 L62.6614125,107.47077 L57.670001,119.084349 L44.9227038,119.084349 L68.1135698,65.3234758 L79.7090027,65.3234758 L102.899869,119.084349 L90.1525715,119.084349 Z M73.9496817,81.3209888 L67.1920784,96.9339462 L80.6304941,96.9339462 L73.9496817,81.3209888 Z M149.742346,65.3234758 L161.721734,65.3234758 L161.721734,119.084349 L149.742346,119.084349 L124.170961,85.3972782 L124.170961,119.084349 L112.191573,119.084349 L112.191573,65.3234758 L123.403051,65.3234758 L149.742346,99.9334799 L149.742346,65.3234758 Z M178.001415,65.3234758 L189.980802,65.3234758 L189.980802,119.084349 L178.001415,119.084349 L178.001415,65.3234758 Z M230.910377,108.470614 C236.797712,108.470614 241.609897,106.137667 245.347075,101.471702 L253.02617,109.393548 C246.934057,116.264309 239.754176,119.699638 231.486309,119.699638 C223.218442,119.699638 216.409713,117.084686 211.059917,111.854704 C205.710121,106.624721 203.035263,100.023249 203.035263,92.0500901 C203.035263,84.0769307 205.761315,77.4241854 211.213499,72.0916543 C216.665684,66.7591233 223.333631,64.0928978 231.217541,64.0928978 C240.022947,64.0928978 247.394804,67.4513165 253.333333,74.1682546 L245.884611,82.6284778 C242.096239,77.9112389 237.386442,75.5526548 231.755077,75.5526548 C227.249986,75.5526548 223.397679,77.0267698 220.19804,79.9750442 C216.998401,82.9233185 215.398606,86.89702 215.398606,91.8962678 C215.398606,96.8955157 216.908812,100.907672 219.929271,103.932858 C222.949731,106.958044 226.610062,108.470614 230.910377,108.470614 L230.910377,108.470614 Z" id="PANIC" fill="#202328"></path>
                </g>
            </g>
            <g id="Group-2">
                <mask id="mask-2" fill="white">
                    <use xlink:href="#path-1"></use>
                </mask>
                <use id="Oval-5" fill="#202328" xlink:href="#path-1"></use>
                <path d="M59.2949388,129.484411 C60.0892846,128.549763 60.9729884,127.508959 61.9668631,126.34394 C66.1923276,121.477206 70.0591273,116.098286 73.3237581,109.041885 L73.9133247,112.063976 C77.4088572,107.517479 78.0092862,97.7465878 77.91933,95.7104791 C78.5976928,93.1364301 79.2760557,90.5623812 79.813473,87.514536 C81.9763247,77.7946702 90.0937936,64.8597983 93.6792823,62.3494103 C97.2647709,59.8390223 95.4066952,52.5527649 95.4066952,52.5527649 C95.4066952,52.5527649 87.1471209,57.3815919 86.3272327,55.6657203 C85.5457314,53.7321455 91.2184577,49.5695468 90.9611915,42.1166116 C90.7423122,34.4459731 84.5052241,32.8972624 84.5052241,32.8972624 L73.2497276,43.2585685 C71.3802094,44.9491689 69.1904132,45.9098801 66.7187261,45.9229988 C58.8298391,46.1032783 52.5303192,55.0937379 50.9426919,57.7319309 C50.9426919,57.7319309 43.7459299,61.6258009 35.537345,64.8923155 C34.8074129,65.2125526 37.5357863,68.8362448 43.6319289,69.9111592 C43.6319289,69.9111592 49.8432325,70.332964 52.4684674,69.4490324 C48.5884854,72.3564371 44.2598824,72.715547 40.9173178,72.5751065 C38.2410936,75.0213504 34.8733243,77.5701282 30.8140099,80.2214399 C30.3401842,80.3623635 29.8279715,80.7209904 29.3157588,81.0796172 C29.3157588,81.0796172 19.211871,84.9098263 13.1289106,86.306427 C13.1289106,86.306427 15.2293305,87.1257315 19.1866663,87.5990447 C17.0559969,88.7941009 15.0569416,90.0123642 13.2616697,90.8445426 C10.8738658,84.3470247 9.5703125,77.3257429 9.5703125,70 C9.5703125,62.8247812 10.8208472,55.9416404 13.1158563,49.5566378 C22.1077023,48.1175659 37.5389488,45.5020236 37.5558049,44.4979703 C37.5701862,43.6923991 26.329435,41.6520567 17.4371921,40.1643742 C18.0826357,39.0297114 18.7637595,37.9179897 19.4790372,36.8307356 C23.5395826,36.2114151 49.6761174,32.1744005 49.6980574,30.8675218 C49.7131667,30.0211712 37.3047919,27.8118727 28.2488405,26.312479 C39.0985043,15.9407783 53.8053012,9.5703125 70,9.5703125 C103.374395,9.5703125 130.429688,36.6256052 130.429688,70 C130.429688,77.21283 129.166008,84.1305119 126.847968,90.543728 C117.809379,92.0110436 102.674673,94.6079259 102.691359,95.5425886 C102.705594,96.390514 113.713128,98.3877277 122.551736,99.8550819 C121.891874,101.01409 121.194776,102.149143 120.462071,103.258611 C115.543862,104.023212 90.5276565,107.971532 90.5491061,109.173037 C90.564062,110.063899 102.713834,112.223388 111.733765,113.704143 C100.885779,124.066027 86.1860459,130.429688 70,130.429688 C66.3468704,130.429688 62.7694518,130.10553 59.2949388,129.484411 Z M65.3177642,53.9485336 L66.7770773,49.4916902 L69.4406628,48.3899656 C68.2889931,54.921409 65.3177642,53.9485336 65.3177642,53.9485336 L65.3177642,53.9485336 Z" id="Combined-Shape" fill="#FF9933" mask="url(#mask-2)"></path>
            </g>
        </g>
    </g>
</svg>